<svg xmlns="http://www.w3.org/2000/svg" width="35.573" height="28.001" viewBox="0 0 35.573 28.001">
  <path id="Icon_awesome-address-card" data-name="Icon awesome-address-card" d="M31.234,2.25H2.839A2.84,2.84,0,0,0,0,5.089V25.912a2.84,2.84,0,0,0,2.839,2.839H31.234a2.84,2.84,0,0,0,2.839-2.839V5.089A2.84,2.84,0,0,0,31.234,2.25ZM10.411,7.929a3.786,3.786,0,1,1-3.786,3.786A3.789,3.789,0,0,1,10.411,7.929Zm6.625,14.008a1.241,1.241,0,0,1-1.325,1.136H5.111a1.24,1.24,0,0,1-1.325-1.136V20.8a3.725,3.725,0,0,1,3.975-3.407h.3a6.093,6.093,0,0,0,4.709,0h.3A3.725,3.725,0,0,1,17.037,20.8Zm13.251-3.123a.475.475,0,0,1-.473.473H21.3a.475.475,0,0,1-.473-.473v-.946a.475.475,0,0,1,.473-.473h8.518a.475.475,0,0,1,.473.473Zm0-3.786a.475.475,0,0,1-.473.473H21.3a.475.475,0,0,1-.473-.473v-.946a.475.475,0,0,1,.473-.473h8.518a.475.475,0,0,1,.473.473Zm0-3.786a.475.475,0,0,1-.473.473H21.3a.475.475,0,0,1-.473-.473V10.3a.475.475,0,0,1,.473-.473h8.518a.475.475,0,0,1,.473.473Z" transform="translate(0.75 -1.5)" fill="none" stroke="#002e6d" stroke-width="1.5"/>
</svg>
