<svg xmlns="http://www.w3.org/2000/svg" width="27.07" height="27.07" viewBox="0 0 27.07 27.07">
  <path id="Icon_material-person-outline" data-name="Icon material-person-outline" d="M19.535,9.215a3.553,3.553,0,1,1-3.553,3.553,3.553,3.553,0,0,1,3.553-3.553m0,15.227c5.025,0,10.321,2.47,10.321,3.553v1.861H9.215V27.995c0-1.083,5.3-3.553,10.321-3.553M19.535,6A6.768,6.768,0,1,0,26.3,12.768,6.766,6.766,0,0,0,19.535,6Zm0,15.227C15.018,21.227,6,23.494,6,27.995V33.07H33.07V27.995C33.07,23.494,24.053,21.227,19.535,21.227Z" transform="translate(-6 -6)" fill="#c4c4c4"/>
</svg>
