<svg xmlns="http://www.w3.org/2000/svg" width="22.729" height="22.772" viewBox="0 0 22.729 22.772">
  <path id="Icon_feather-phone" data-name="Icon feather-phone" d="M24.4,18.925v3.2a2.135,2.135,0,0,1-2.327,2.135,21.123,21.123,0,0,1-9.211-3.277,20.813,20.813,0,0,1-6.4-6.4A21.123,21.123,0,0,1,3.176,5.327,2.135,2.135,0,0,1,5.3,3H8.5a2.135,2.135,0,0,1,2.135,1.836,13.7,13.7,0,0,0,.747,3,2.135,2.135,0,0,1-.48,2.252L9.548,11.443a17.077,17.077,0,0,0,6.4,6.4l1.356-1.356a2.135,2.135,0,0,1,2.252-.48,13.7,13.7,0,0,0,3,.747A2.135,2.135,0,0,1,24.4,18.925Z" transform="translate(-2.417 -2.25)" fill="none" stroke="#002e6d" stroke-linecap="round" stroke-linejoin="round" stroke-width="1.5"/>
</svg>
