<svg id="united-kingdom" xmlns="http://www.w3.org/2000/svg" width="34.396" height="22.535" viewBox="0 0 34.396 22.535">
  <path id="Path_1122" data-name="Path 1122" d="M31.82,88.276H2.576A2.576,2.576,0,0,0,0,90.852v17.383a2.576,2.576,0,0,0,2.576,2.576H31.82a2.576,2.576,0,0,0,2.576-2.576V90.852A2.576,2.576,0,0,0,31.82,88.276Z" transform="translate(0 -88.276)" fill="#41479b"/>
  <path id="Path_1123" data-name="Path 1123" d="M34.36,90.425a2.576,2.576,0,0,0-2.54-2.15h-.67l-10.986,7.2v-7.2h-5.93v7.2l-10.986-7.2h-.67a2.576,2.576,0,0,0-2.54,2.15l9.39,6.152H0v5.93H9.426L.036,108.66a2.576,2.576,0,0,0,2.54,2.15h.67l10.986-7.2v7.2h5.93v-7.2l10.986,7.2h.67a2.576,2.576,0,0,0,2.54-2.15l-9.39-6.152H34.4v-5.93H24.97Z" transform="translate(0 -88.275)" fill="#f5f5f5"/>
  <g id="Group_99" data-name="Group 99" transform="translate(0 0)">
    <path id="Path_1124" data-name="Path 1124" d="M18.977,88.276H15.419v9.488H0v3.558H15.419v9.488h3.558v-9.488H34.4V97.764H18.977Z" transform="translate(0 -88.276)" fill="#ff4b55"/>
    <path id="Path_1125" data-name="Path 1125" d="M10.27,308.274,22.8,300.138H20.626l-11.4,7.4A2.579,2.579,0,0,0,10.27,308.274Z" transform="translate(-8.604 -285.905)" fill="#ff4b55"/>
    <path id="Path_1126" data-name="Path 1126" d="M316.138,300.138H313.96l12.14,7.88a2.588,2.588,0,0,0,.825-.878Z" transform="translate(-292.868 -285.905)" fill="#ff4b55"/>
    <path id="Path_1127" data-name="Path 1127" d="M4.049,96.758l10.6,6.878h2.178L4.817,95.842A2.586,2.586,0,0,0,4.049,96.758Z" transform="translate(-3.777 -95.334)" fill="#ff4b55"/>
    <path id="Path_1128" data-name="Path 1128" d="M302.316,98.771l11.423-7.415a2.58,2.58,0,0,0-1.055-.73l-12.547,8.144Z" transform="translate(-279.975 -90.469)" fill="#ff4b55"/>
  </g>
</svg>
