<svg id="egypt" xmlns="http://www.w3.org/2000/svg" width="34.454" height="22.574" viewBox="0 0 34.454 22.574">
  <path id="Path_1119" data-name="Path 1119" d="M31.874,88.276H2.58A2.58,2.58,0,0,0,0,90.856V95.8H34.454V90.856A2.58,2.58,0,0,0,31.874,88.276Z" transform="translate(0 -88.276)" fill="#ff4b55"/>
  <path id="Path_1120" data-name="Path 1120" d="M0,316.852a2.58,2.58,0,0,0,2.58,2.58H31.874a2.58,2.58,0,0,0,2.58-2.58v-4.944H0Z" transform="translate(0 -296.859)" fill="#464655"/>
  <rect id="Rectangle_1679" data-name="Rectangle 1679" width="34.454" height="7.524" transform="translate(0 7.524)" fill="#f5f5f5"/>
  <path id="Path_1121" data-name="Path 1121" d="M231.607,213.659a.432.432,0,0,0-.568-.409l-.525.175-.128-.77a.945.945,0,0,0-.936-.793h-.491l-.514.632h.68l-.19.94-.554-.185a.432.432,0,0,0-.568.409v3.195l.765-.765-.36,1.081h-.4v.632h3.794v-.632h-.4l-.36-1.081.765.765v-3.195Zm-2.213,3.511h-.51l.35-.936.159.2v.733Zm.632,0v-.733l.159-.2.35.936Zm-.316-1.146a2.324,2.324,0,0,1-.938-1.9,1.494,1.494,0,0,0,.938-.632,1.5,1.5,0,0,0,.939.632A2.324,2.324,0,0,1,229.71,216.024Z" transform="translate(-212.483 -203.545)" fill="#f0c727"/>
</svg>
