<svg xmlns="http://www.w3.org/2000/svg" width="55.858" height="21.165" viewBox="0 0 55.858 21.165">
  <g id="eTax_New_logo" data-name="eTax New logo" transform="translate(-0.001)">
    <path id="Path_374" data-name="Path 374" d="M303.007,43.75h-2.46l-2.7,3.322-2.7-3.322h-2.46l5.158,6.353,2.7,3.32h2.46l-3.929-4.837Z" transform="translate(-247.149 -36.943)" fill="#002e6d"/>
    <path id="Path_375" data-name="Path 375" d="M16.351,4.045c5.724-.739,9.18,1.573,5.122,5.181-4.459,3.964-13.8,6.74-14.277,6.846s-.549-.523.66-.957A46.132,46.132,0,0,0,14.35,11.87c4.257-2.5,5.359-6.02,3.267-6.63-1.8-.521-6.5,1.323-10.187,5.912-4.346,5.39-3.726,11.1,2.928,9.835,7.039-1.34,12.357-7.093,12.936-7.762a3.607,3.607,0,0,0,.91-2.426V0H0V15.592C1.8,10.783,7.689,5.161,16.351,4.045" transform="translate(0.001 0)" fill="#e1251b"/>
    <path id="Path_376" data-name="Path 376" d="M191.307,39.615c-.979,0-1.416-.437-1.416-1.416V33.763h2.158V31.848h-2.158V29.69h-1.917v2.158H186.68v1.915h1.295V38.2a2.978,2.978,0,0,0,3.331,3.331h1.181V39.615Z" transform="translate(-157.633 -25.07)" fill="#002e6d"/>
    <path id="Path_377" data-name="Path 377" d="M234.641,43.56h-3.02a2.979,2.979,0,0,0-3.331,3.331V47.2h1.915V46.9c0-.979.437-1.416,1.416-1.416h3.02c.832,0,1.268.311,1.38,1l-6.174,1.4c-.71.156-1.556.7-1.556,2.461,0,1.323.577,2.9,3.331,2.9h3.02a2.978,2.978,0,0,0,3.331-3.331V46.9a2.978,2.978,0,0,0-3.331-3.331m1.416,4.886v1.466c0,.98-.437,1.416-1.416,1.416h-3.022c-.979,0-1.416-.436-1.416-1.416,0-.05,0-.1.131-.156Z" transform="translate(-192.769 -36.782)" fill="#002e6d"/>
    <path id="Path_378" data-name="Path 378" d="M191.308,39.817c-.979,0-1.416-.437-1.416-1.416V33.961h2.157V32.055h-2.157V29.9h-1.909v2.155H186.69v1.906h1.293V38.4a2.973,2.973,0,0,0,3.327,3.327h1.172V39.817Z" transform="translate(-157.641 -25.248)" fill="#002e6d"/>
    <path id="Path_379" data-name="Path 379" d="M234.531,43.75h-3.018a2.974,2.974,0,0,0-3.327,3.328v.311H230.1v-.311c0-.98.436-1.417,1.416-1.417h3.018c.834,0,1.268.311,1.382,1l-6.177,1.4c-1.281.269-1.556,1.484-1.556,2.457,0,2.393,1.808,2.9,3.327,2.9h3.025a2.974,2.974,0,0,0,3.327-3.327V47.078A2.972,2.972,0,0,0,234.531,43.75Zm1.416,6.347c0,.979-.437,1.416-1.416,1.416h-3.018c-.98,0-1.416-.437-1.416-1.416,0-.051,0-.1.131-.156l5.72-1.315Z" transform="translate(-192.676 -36.943)" fill="#002e6d"/>
    <path id="Path_380" data-name="Path 380" d="M297.848,84.58l-1.945,2.4a2.511,2.511,0,0,1-1.95.934H292.69l2.706-3.328Z" transform="translate(-247.149 -71.42)" fill="#e1251b"/>
  </g>
</svg>
