<svg xmlns="http://www.w3.org/2000/svg" width="389.719" height="181.417" viewBox="0 0 389.719 181.417">
  <g id="Group_8" data-name="Group 8" transform="translate(0.437 1.007)">
    <path id="Path_28" data-name="Path 28" d="M-8,195.893l118.134-57.378a25.822,25.822,0,0,1,24.249.9l80.608,46.8a25.822,25.822,0,0,0,30.687-3.548L295.035,136.1A25.822,25.822,0,0,1,332.6,138.36l47.916,57.533" transform="translate(8 -129.063)" fill="none" stroke="rgba(67,143,206,0.25)" stroke-width="2"/>
    <path id="Path_29" data-name="Path 29" d="M-8,211.893l118.134-57.378a25.823,25.823,0,0,1,24.249.9l80.608,46.8a25.822,25.822,0,0,0,30.687-3.548L295.035,152.1A25.822,25.822,0,0,1,332.6,154.36l47.916,57.533" transform="translate(8 -126.283)" fill="none" stroke="rgba(67,143,206,0.25)" stroke-width="2"/>
    <path id="Path_30" data-name="Path 30" d="M-8,227.893l118.134-57.378a25.822,25.822,0,0,1,24.249.9l80.608,46.8a25.822,25.822,0,0,0,30.687-3.548L295.035,168.1A25.822,25.822,0,0,1,332.6,170.36l47.916,57.533" transform="translate(8 -123.503)" fill="none" stroke="rgba(67,143,206,0.25)" stroke-width="2"/>
    <path id="Path_31" data-name="Path 31" d="M-8,243.893l118.134-57.378a25.823,25.823,0,0,1,24.249.9l80.608,46.8a25.822,25.822,0,0,0,30.687-3.548L295.035,184.1A25.822,25.822,0,0,1,332.6,186.36l47.916,57.533" transform="translate(8 -120.723)" fill="none" stroke="rgba(67,143,206,0.25)" stroke-width="2"/>
    <path id="Path_32" data-name="Path 32" d="M-8,259.893l118.134-57.378a25.822,25.822,0,0,1,24.249.9l80.608,46.8a25.822,25.822,0,0,0,30.687-3.548L295.035,200.1A25.822,25.822,0,0,1,332.6,202.36l47.916,57.533" transform="translate(8 -117.943)" fill="none" stroke="rgba(67,143,206,0.25)" stroke-width="2"/>
    <path id="Path_33" data-name="Path 33" d="M-8,275.893l118.134-57.378a25.823,25.823,0,0,1,24.249.9l80.608,46.8a25.822,25.822,0,0,0,30.687-3.548L295.035,216.1A25.822,25.822,0,0,1,332.6,218.36l47.916,57.533" transform="translate(8 -115.163)" fill="none" stroke="rgba(67,143,206,0.25)" stroke-width="2"/>
    <path id="Path_34" data-name="Path 34" d="M-8,291.893l118.134-57.378a25.823,25.823,0,0,1,24.249.9l80.608,46.8a25.822,25.822,0,0,0,30.687-3.548L295.035,232.1A25.822,25.822,0,0,1,332.6,234.36l47.916,57.533" transform="translate(8 -112.382)" fill="none" stroke="rgba(67,143,206,0.25)" stroke-width="2"/>
  </g>
</svg>
